<?xml version="1.0" encoding="utf-8"?>
<!-- Generator: Adobe Illustrator 15.0.2, SVG Export Plug-In . SVG Version: 6.00 Build 0)  -->
<!DOCTYPE svg PUBLIC "-//W3C//DTD SVG 1.1//EN" "http://www.w3.org/Graphics/SVG/1.1/DTD/svg11.dtd">
<svg version="1.1" id="Layer_1" xmlns="http://www.w3.org/2000/svg" xmlns:xlink="http://www.w3.org/1999/xlink" x="0px" y="0px"
	 width="275.667px" height="104.1px" viewBox="218.333 222.117 275.667 104.1"
	 enable-background="new 218.333 222.117 275.667 104.1" xml:space="preserve">
<rect x="218.333" y="222.117" fill="#00A79D" width="275.667" height="104.1"/>
<path fill="#F1F2F2" d="M262.701,285.45l-3.245-10.93c3.245-0.904,5.505-1.977,6.782-3.218c2.021-1.985,3.032-4.21,3.032-6.675
	c0-2.34-0.869-4.255-2.606-5.745c-1.738-1.489-4.743-2.234-9.016-2.234h-14.946l-0.266,0.984c1.684,0.125,2.756,0.373,3.218,0.745
	c0.461,0.373,0.691,0.914,0.691,1.623c0,0.745-0.186,1.764-0.559,3.058l-6.702,23.137c-0.674,2.34-1.414,3.848-2.221,4.521
	c-0.807,0.674-2.079,1.011-3.816,1.011l-0.319,0.984h17.366l0.372-0.984c-1.738-0.036-2.881-0.257-3.431-0.665
	c-0.55-0.408-0.824-0.948-0.824-1.622c0-0.727,0.23-1.862,0.691-3.404l3.191-10.93c0.407,0.036,0.708,0.053,0.904,0.053l0.878-0.053
	l5.106,17.605h11.223v-0.984c-1.507-0.053-2.584-0.381-3.231-0.984C264.328,290.14,263.57,288.375,262.701,285.45z M252.037,273.562
	c-0.426,0-0.949-0.018-1.569-0.053l4.361-14.76c0.479-0.018,0.896-0.027,1.25-0.027c1.454,0,2.624,0.443,3.511,1.33
	c0.886,0.887,1.33,2.181,1.33,3.882c0,2.873-0.833,5.195-2.5,6.968C256.753,272.676,254.625,273.562,252.037,273.562z
	 M279.509,277.939c1.932-0.532,3.679-1.308,5.239-2.327c1.56-1.02,2.854-2.362,3.883-4.029c0.745-1.223,1.117-2.482,1.117-3.776
	c0-1.081-0.381-1.977-1.144-2.686c-0.762-0.709-1.888-1.063-3.377-1.063c-2.943,0-5.873,0.877-8.79,2.633
	c-2.917,1.755-5.222,4.086-6.915,6.994c-1.693,2.908-2.54,5.815-2.54,8.723c0,1.861,0.567,3.501,1.702,4.92
	c1.134,1.418,3.182,2.127,6.143,2.127c2.34,0,4.477-0.523,6.409-1.569c1.932-1.046,3.918-2.801,5.958-5.266l-0.798-0.718
	c-1.649,1.507-3.099,2.562-4.348,3.165c-1.25,0.603-2.496,0.904-3.737,0.904c-1.294,0-2.327-0.399-3.098-1.197
	c-0.771-0.798-1.157-1.861-1.157-3.191c0-0.745,0.08-1.693,0.239-2.846C276.477,278.56,278.214,278.294,279.509,277.939z
	 M279.402,267.594c1.064-1.188,2.021-1.782,2.873-1.782c0.425,0,0.775,0.142,1.05,0.426c0.274,0.284,0.412,0.674,0.412,1.17
	c0,1.17-0.302,2.425-0.904,3.763c-0.603,1.339-1.316,2.447-2.141,3.324c-0.825,0.878-1.667,1.516-2.526,1.915
	c-0.86,0.399-2.07,0.714-3.63,0.944C275.83,273.011,277.452,269.757,279.402,267.594z M301.683,277.939
	c1.932-0.532,3.679-1.308,5.239-2.327c1.56-1.02,2.854-2.362,3.883-4.029c0.745-1.223,1.117-2.482,1.117-3.776
	c0-1.081-0.381-1.977-1.144-2.686c-0.762-0.709-1.888-1.063-3.377-1.063c-2.943,0-5.873,0.877-8.79,2.633
	c-2.917,1.755-5.222,4.086-6.915,6.994c-1.693,2.908-2.54,5.815-2.54,8.723c0,1.861,0.567,3.501,1.702,4.92
	c1.134,1.418,3.182,2.127,6.143,2.127c2.34,0,4.477-0.523,6.409-1.569c1.932-1.046,3.918-2.801,5.958-5.266l-0.798-0.718
	c-1.649,1.507-3.099,2.562-4.348,3.165c-1.25,0.603-2.496,0.904-3.737,0.904c-1.294,0-2.327-0.399-3.098-1.197
	c-0.771-0.798-1.157-1.861-1.157-3.191c0-0.745,0.08-1.693,0.239-2.846C298.651,278.56,300.389,278.294,301.683,277.939z
	 M301.577,267.594c1.064-1.188,2.021-1.782,2.873-1.782c0.425,0,0.775,0.142,1.05,0.426c0.274,0.284,0.412,0.674,0.412,1.17
	c0,1.17-0.302,2.425-0.904,3.763c-0.603,1.339-1.316,2.447-2.141,3.324c-0.825,0.878-1.667,1.516-2.526,1.915
	c-0.86,0.399-2.07,0.714-3.63,0.944C298.004,273.011,299.626,269.757,301.577,267.594z M332.075,285.226
	c-0.39,0.302-0.736,0.452-1.037,0.452c-0.16,0-0.311-0.071-0.452-0.213c-0.142-0.142-0.213-0.31-0.213-0.505
	c0-0.39,0.275-1.516,0.825-3.377l8.643-29.759h-1.596l-8.75,1.622l-0.266,1.037c0.373-0.053,0.683-0.08,0.931-0.08
	c0.532,0,0.958,0.151,1.277,0.452c0.319,0.301,0.479,0.665,0.479,1.09c0,0.709-0.239,1.879-0.718,3.51l-1.968,6.622
	c-0.691-0.78-1.308-1.312-1.848-1.596c-0.541-0.283-1.157-0.425-1.849-0.425c-1.347,0-2.717,0.368-4.108,1.104
	c-1.392,0.736-2.855,1.964-4.388,3.683c-1.534,1.72-2.886,3.866-4.056,6.436c-1.17,2.571-1.755,5.177-1.755,7.819
	c0,2.074,0.457,3.652,1.37,4.734c0.913,1.081,2.035,1.622,3.364,1.622c1.17,0,2.375-0.479,3.617-1.436
	c1.631-1.294,3.555-3.9,5.771-7.819l-0.798,2.713c-0.461,1.542-0.691,2.73-0.691,3.563c0,0.869,0.288,1.583,0.864,2.141
	c0.576,0.559,1.396,0.838,2.46,0.838c2.996,0,5.745-2.181,8.245-6.542l-0.958-0.505C333.529,283.79,332.731,284.73,332.075,285.226z
	 M325.945,276.649c-1.463,3.289-2.948,5.607-4.455,6.955c-0.621,0.567-1.241,0.851-1.862,0.851c-0.372,0-0.709-0.204-1.011-0.612
	c-0.301-0.408-0.452-1.037-0.452-1.888c0-2.34,0.687-5.226,2.061-8.657c1.374-3.431,2.69-5.713,3.949-6.848
	c0.656-0.585,1.267-0.877,1.835-0.877c0.567,0,1.063,0.249,1.489,0.745c0.425,0.497,0.638,1.286,0.638,2.367
	C328.139,270.706,327.408,273.361,325.945,276.649z M388.811,281.928l0.904,0.532c-2.677,4.663-5.522,6.994-8.537,6.994
	c-1.153,0-2.07-0.324-2.752-0.971c-0.683-0.647-1.024-1.467-1.024-2.46c0-0.656,0.15-1.489,0.452-2.5l3.697-12.712
	c0.354-1.224,0.531-2.145,0.531-2.766c0-0.39-0.168-0.735-0.505-1.037c-0.337-0.301-0.798-0.452-1.383-0.452
	c-0.266,0-1.246,0.03-1.246,0.03l-0.007-0.417h-0.002c-0.106-1.986-0.417-3.461-0.931-4.428c-0.515-0.966-1.361-1.719-2.54-2.26
	c-1.179-0.541-3.062-0.812-5.651-0.812h-4.548l-3.989,13.617c2.713-0.036,4.477-0.142,5.292-0.319
	c1.33-0.266,2.535-0.829,3.617-1.689c1.081-0.859,1.985-2.052,2.713-3.577h1.037l-4.122,14.228h-1.064
	c0.177-0.922,0.266-1.658,0.266-2.208c0-1.099-0.226-1.977-0.678-2.633c-0.452-0.656-1.033-1.104-1.742-1.343
	c-0.709-0.24-2.659-0.395-5.851-0.465l-3.245,11.249l-0.638,2.261c-0.089,0.443-0.133,0.877-0.133,1.303
	c0,0.621,0.12,1.108,0.359,1.462c0.239,0.355,0.625,0.634,1.157,0.838c0.532,0.204,1.542,0.315,3.032,0.333l-0.292,0.984h-18.004
	l0.292-0.984c1.737,0,3.005-0.323,3.803-0.971c0.798-0.647,1.516-2.061,2.154-4.242l6.436-22.074
	c0.673-2.322,1.028-3.812,1.064-4.468c-0.036-0.62-0.319-1.147-0.851-1.583c-0.532-0.434-1.623-0.687-3.271-0.758l0.266-0.984
	h29.467l-2.23,8.771l8.484-1.362h1.596l-5.451,18.908c-0.302,1.082-0.452,1.791-0.452,2.128c0,0.195,0.08,0.377,0.239,0.545
	c0.159,0.169,0.328,0.253,0.505,0.253c0.302,0,0.603-0.133,0.904-0.399C386.736,284.836,387.694,283.648,388.811,281.928z
	 M388.545,251.824c1.1,0,2.025,0.381,2.779,1.144c0.753,0.762,1.13,1.685,1.13,2.766c0,1.082-0.381,2.004-1.144,2.766
	c-0.763,0.763-1.685,1.144-2.766,1.144c-1.063,0-1.978-0.381-2.739-1.144c-0.763-0.762-1.144-1.684-1.144-2.766
	c0-1.081,0.377-2.003,1.13-2.766C386.546,252.205,387.463,251.824,388.545,251.824z M409.708,264.057l-1.17,8.217h-0.984
	c-0.142-2.127-0.793-3.803-1.954-5.026c-1.16-1.223-2.406-1.835-3.735-1.835c-0.816,0-1.489,0.24-2.021,0.718
	s-0.798,1.055-0.798,1.729c0,0.568,0.115,1.1,0.346,1.596c0.23,0.497,0.745,1.17,1.543,2.021c2.802,3.015,4.503,5.089,5.105,6.223
	c0.603,1.135,0.904,2.35,0.904,3.644c0,1.401-0.354,2.726-1.063,3.976c-0.71,1.25-1.769,2.251-3.179,3.005
	c-1.409,0.753-2.876,1.13-4.401,1.13c-1.027,0-2.296-0.204-3.803-0.612c-0.993-0.283-1.737-0.425-2.233-0.425
	c-0.443,0-0.789,0.066-1.037,0.199c-0.249,0.133-0.523,0.413-0.825,0.838h-0.983l1.303-8.856h0.852
	c0.62,2.146,1.2,3.675,1.741,4.587c0.541,0.914,1.264,1.64,2.168,2.181c0.904,0.542,1.772,0.812,2.606,0.812
	c0.976,0,1.781-0.306,2.42-0.917c0.639-0.612,0.957-1.343,0.957-2.194c0-0.833-0.208-1.64-0.625-2.42
	c-0.417-0.78-1.379-1.995-2.886-3.644c-2.074-2.251-3.439-3.989-4.095-5.212c-0.462-0.886-0.691-1.897-0.691-3.032
	c0-1.915,0.695-3.511,2.087-4.787c1.393-1.276,3.347-1.915,5.864-1.915c1.1,0,2.447,0.195,4.043,0.585
	c0.797,0.195,1.436,0.292,1.914,0.292c0.69,0,1.25-0.292,1.676-0.877L409.708,264.057L409.708,264.057z M425.538,251.824
	l-6.915,23.961c2.394-3.528,4.131-5.913,5.213-7.154c1.613-1.791,3-3.001,4.162-3.63c1.16-0.629,2.273-0.944,3.337-0.944
	c0.904,0,1.68,0.341,2.327,1.024c0.646,0.683,0.971,1.591,0.971,2.726c0,0.958-0.213,2.154-0.638,3.59l-3.378,11.329
	c-0.302,0.993-0.452,1.658-0.452,1.995c0,0.16,0.062,0.306,0.187,0.439c0.124,0.133,0.267,0.199,0.426,0.199
	c0.213,0,0.426-0.088,0.639-0.266c0.567-0.443,1.17-1.152,1.809-2.128c0.159-0.248,0.416-0.62,0.771-1.117l1.037,0.585
	c-1.525,2.518-2.971,4.247-4.335,5.186c-1.365,0.94-2.66,1.41-3.883,1.41c-1.101,0-1.96-0.284-2.58-0.851
	c-0.621-0.567-0.932-1.277-0.932-2.128c0-0.78,0.213-1.888,0.64-3.324l3.297-11.329c0.213-0.78,0.318-1.347,0.318-1.702
	c0-0.195-0.074-0.368-0.226-0.519c-0.151-0.15-0.324-0.226-0.519-0.226c-0.64,0-1.518,0.532-2.634,1.596
	c-2.306,2.181-4.609,5.603-6.915,10.266l-2.365,7.898h-6.597l8.724-30.052c0.354-1.276,0.531-2.189,0.531-2.739
	c0-0.443-0.178-0.789-0.531-1.037c-0.461-0.336-1.17-0.479-2.127-0.425l0.186-1.064l8.856-1.569H425.538L425.538,251.824z
	 M448.653,277.939c1.933-0.532,3.679-1.308,5.238-2.327c1.561-1.02,2.854-2.362,3.884-4.029c0.743-1.223,1.116-2.482,1.116-3.776
	c0-1.081-0.382-1.977-1.144-2.686c-0.763-0.709-1.889-1.063-3.378-1.063c-2.943,0-5.873,0.877-8.789,2.633
	c-2.917,1.755-5.222,4.086-6.915,6.994c-1.693,2.908-2.54,5.815-2.54,8.723c0,1.861,0.567,3.501,1.702,4.92
	c1.135,1.418,3.183,2.127,6.144,2.127c2.342,0,4.478-0.523,6.409-1.569c1.933-1.046,3.918-2.801,5.957-5.266l-0.798-0.718
	c-1.648,1.507-3.098,2.562-4.348,3.165s-2.496,0.904-3.736,0.904c-1.295,0-2.327-0.399-3.099-1.197
	c-0.772-0.798-1.157-1.861-1.157-3.191c0-0.745,0.08-1.693,0.239-2.846C445.622,278.56,447.359,278.294,448.653,277.939z
	 M448.547,267.594c1.063-1.188,2.021-1.782,2.872-1.782c0.426,0,0.775,0.142,1.051,0.426c0.274,0.284,0.412,0.674,0.412,1.17
	c0,1.17-0.302,2.425-0.904,3.763c-0.603,1.339-1.315,2.447-2.141,3.324c-0.824,0.878-1.667,1.516-2.526,1.915
	c-0.859,0.399-2.069,0.714-3.63,0.944C444.975,273.011,446.597,269.757,448.547,267.594z M470.003,264.057l-4.016,14.946
	c3.298-7.287,5.778-11.772,7.445-13.457c0.976-0.993,2.003-1.489,3.085-1.489c0.744,0,1.348,0.271,1.81,0.811
	c0.461,0.541,0.69,1.308,0.69,2.3c0,1.72-0.417,3.165-1.25,4.335c-0.531,0.745-1.126,1.117-1.781,1.117
	c-0.709,0-1.241-0.328-1.597-0.984c-0.354-0.656-0.603-1.041-0.743-1.157c-0.144-0.115-0.294-0.173-0.452-0.173
	c-0.179,0-0.364,0.053-0.56,0.16c-0.391,0.212-0.899,0.731-1.528,1.556c-0.631,0.824-1.405,2.203-2.327,4.135
	c-0.922,1.933-1.641,3.568-2.154,4.907s-1.232,3.888-2.154,7.646h-6.436l4.389-17.632c0.318-1.312,0.479-2.181,0.479-2.606
	c0-0.479-0.085-0.851-0.253-1.117c-0.169-0.266-0.398-0.46-0.691-0.585c-0.293-0.124-0.9-0.186-1.821-0.186l0.239-0.771l8.031-1.755
	L470.003,264.057L470.003,264.057z"/>
</svg>
